<svg xmlns="http://www.w3.org/2000/svg" viewBox="0 0 64 64">
  <defs>
    <linearGradient id="fireGrad" x1="0%" y1="100%" x2="0%" y2="0%">
      <stop offset="0%" style="stop-color:#ff4500"/>
      <stop offset="40%" style="stop-color:#ff6b35"/>
      <stop offset="70%" style="stop-color:#ffa500"/>
      <stop offset="100%" style="stop-color:#ffd700"/>
    </linearGradient>
  </defs>
  <circle cx="32" cy="32" r="30" fill="#2a1a10"/>
  <path d="M32 18 Q36 26 34 32 Q38 38 32 48 Q26 38 30 32 Q28 26 32 18" fill="url(#fireGrad)"/>
  <path d="M28 24 Q30 30 28 34 Q32 40 28 46 Q24 40 26 34 Q24 30 28 24" fill="url(#fireGrad)" opacity="0.8"/>
  <path d="M36 26 Q38 32 36 36 Q40 42 36 48 Q32 42 34 36 Q32 32 36 26" fill="url(#fireGrad)" opacity="0.7"/>
  <ellipse cx="32" cy="50" rx="12" ry="4" fill="#ff4500" opacity="0.5"/>
  <circle cx="30" cy="28" r="3" fill="#ffffff" opacity="0.6"/>
  <circle cx="34" cy="32" r="2" fill="#ffffff" opacity="0.4"/>
</svg>
