<svg xmlns="http://www.w3.org/2000/svg" viewBox="0 0 64 64">
  <defs>
    <linearGradient id="settingsGrad" x1="0%" y1="0%" x2="100%" y2="100%">
      <stop offset="0%" style="stop-color:#667eea"/>
      <stop offset="100%" style="stop-color:#764ba2"/>
    </linearGradient>
  </defs>
  <circle cx="32" cy="32" r="30" fill="#f0f0f5"/>
  <g fill="url(#settingsGrad)">
    <path d="M32 18 L35 18 L36 14 L40 14 L42 17 L46 16 L48 20 L52 21 L52 25 L55 27 L53 31 L56 34 L53 38 L56 41 L53 44 L49 44 L47 48 L43 47 L40 50 L37 48 L34 51 L31 49 L31 52 L27 52 L26 48 L22 48 L20 45 L16 46 L14 42 L10 41 L10 37 L7 35 L9 31 L6 28 L9 24 L6 21 L9 17 L13 18 L15 14 L19 15 L22 12 L25 14 L28 11 L31 13 L32 18 Z"/>
    <circle cx="32" cy="33" r="10" fill="#f0f0f5"/>
    <circle cx="32" cy="33" r="6" fill="url(#settingsGrad)"/>
  </g>
</svg>
